<svg width="101" height="22" viewBox="0 0 101 22" fill="none" xmlns="http://www.w3.org/2000/svg">
<path d="M-0.000136673 21.12V20.8L0.639863 20.576C1.3652 20.3413 1.72786 19.7333 1.72786 18.752V2.368C1.72786 1.94133 1.67453 1.6 1.56786 1.344C1.48253 1.088 1.2372 0.874666 0.831863 0.704L-0.000136673 0.32V0H6.17586L12.0959 15.488L17.6639 0H23.9679V0.32L23.4559 0.511999C23.0505 0.661333 22.7732 0.874667 22.6239 1.152C22.4745 1.408 22.3999 1.74933 22.3999 2.176V18.912C22.3999 19.3387 22.4532 19.6693 22.5599 19.904C22.6665 20.1387 22.9225 20.3413 23.3279 20.512L23.9679 20.8V21.12H15.9999V20.8L16.6719 20.512C17.0772 20.3413 17.3332 20.1387 17.4399 19.904C17.5465 19.6693 17.5999 19.3387 17.5999 18.912V11.712L17.6639 2.56L10.9759 21.12H9.37586L2.39986 2.784L2.49586 10.752V18.816C2.49586 19.2853 2.55986 19.6693 2.68786 19.968C2.8372 20.2453 3.11453 20.448 3.51986 20.576L4.22386 20.8V21.12H-0.000136673ZM29.3594 21.6C28.122 21.6 27.0767 21.248 26.2234 20.544C25.3914 19.84 24.9754 18.8267 24.9754 17.504C24.9754 16.5013 25.4874 15.584 26.5114 14.752C27.5354 13.8987 29.146 13.2587 31.3434 12.832C31.6847 12.768 32.0687 12.704 32.4954 12.64C32.922 12.5547 33.37 12.4693 33.8394 12.384V9.856C33.8394 8.40533 33.658 7.392 33.2954 6.816C32.954 6.21867 32.41 5.92 31.6634 5.92C31.1514 5.92 30.746 6.09067 30.4474 6.432C30.1487 6.752 29.9567 7.31733 29.8714 8.128L29.8074 8.48C29.7647 9.39733 29.5407 10.0693 29.1354 10.496C28.73 10.9227 28.2287 11.136 27.6314 11.136C27.0767 11.136 26.618 10.9653 26.2554 10.624C25.8927 10.2827 25.7114 9.824 25.7114 9.248C25.7114 8.37333 26.01 7.63733 26.6074 7.04C27.226 6.44267 28.0367 5.99467 29.0394 5.696C30.042 5.39733 31.13 5.248 32.3034 5.248C34.202 5.248 35.6634 5.71733 36.6874 6.656C37.7327 7.57333 38.2554 9.07733 38.2554 11.168V18.24C38.2554 19.2 38.7034 19.68 39.5994 19.68H40.3034L40.5914 19.936C40.186 20.448 39.738 20.8427 39.2474 21.12C38.778 21.3973 38.106 21.536 37.2314 21.536C36.2927 21.536 35.546 21.3227 34.9914 20.896C34.458 20.448 34.106 19.8613 33.9354 19.136C33.2954 19.8187 32.634 20.4053 31.9514 20.896C31.29 21.3653 30.426 21.6 29.3594 21.6ZM31.3114 19.648C31.738 19.648 32.1327 19.552 32.4954 19.36C32.8794 19.1467 33.3274 18.8267 33.8394 18.4V13.024C33.626 13.0667 33.4127 13.1093 33.1994 13.152C32.986 13.1947 32.7407 13.2373 32.4634 13.28C31.482 13.536 30.6927 13.9733 30.0954 14.592C29.5194 15.1893 29.2314 16 29.2314 17.024C29.2314 17.8987 29.434 18.56 29.8394 19.008C30.2447 19.4347 30.7354 19.648 31.3114 19.648ZM41.1874 21.12V20.8L41.6674 20.672C42.094 20.544 42.382 20.352 42.5314 20.096C42.702 19.84 42.7874 19.5093 42.7874 19.104V9.088C42.7874 8.61867 42.702 8.27733 42.5314 8.064C42.382 7.82933 42.094 7.66933 41.6674 7.584L41.1874 7.456V7.136L46.6914 5.28L47.0114 5.6L47.2994 8.352V8.608C47.598 8.01067 47.982 7.46667 48.4514 6.976C48.942 6.464 49.4754 6.048 50.0514 5.728C50.6487 5.408 51.2354 5.248 51.8114 5.248C52.622 5.248 53.2407 5.472 53.6674 5.92C54.094 6.368 54.3074 6.93333 54.3074 7.616C54.3074 8.34133 54.094 8.90667 53.6674 9.312C53.262 9.696 52.7714 9.888 52.1954 9.888C51.2994 9.888 50.51 9.44 49.8274 8.544L49.7634 8.48C49.55 8.18133 49.3047 8.02133 49.0274 8C48.75 7.95733 48.494 8.08533 48.2594 8.384C48.046 8.576 47.8647 8.81067 47.7154 9.088C47.5874 9.344 47.4594 9.64267 47.3314 9.984V18.912C47.3314 19.7653 47.7047 20.2987 48.4514 20.512L49.4754 20.8V21.12H41.1874ZM62.7484 21.6C61.2977 21.6 59.975 21.2907 58.7804 20.672C57.607 20.032 56.6684 19.1147 55.9644 17.92C55.2817 16.704 54.9404 15.2213 54.9404 13.472C54.9404 11.744 55.3137 10.272 56.0604 9.056C56.8284 7.81867 57.8417 6.88 59.1004 6.24C60.3804 5.57867 61.7777 5.248 63.2924 5.248C64.5297 5.248 65.575 5.45067 66.4284 5.856C67.2817 6.26133 67.9324 6.79467 68.3804 7.456C68.8284 8.096 69.0524 8.768 69.0524 9.472C69.0524 10.0693 68.871 10.5387 68.5084 10.88C68.1457 11.2 67.6764 11.36 67.1004 11.36C66.4817 11.36 65.9804 11.136 65.5964 10.688C65.2124 10.24 64.9884 9.65333 64.9244 8.928C64.903 8.45867 64.9137 8.064 64.9564 7.744C64.999 7.40267 64.999 7.06133 64.9564 6.72C64.871 6.35733 64.7324 6.12267 64.5404 6.016C64.3697 5.888 64.1244 5.824 63.8044 5.824C62.503 5.824 61.4897 6.38933 60.7644 7.52C60.0604 8.65067 59.7084 10.4533 59.7084 12.928C59.7084 15.0827 60.103 16.736 60.8924 17.888C61.703 19.0187 62.9404 19.584 64.6044 19.584C65.607 19.584 66.4177 19.4027 67.0364 19.04C67.655 18.6773 68.2524 18.1333 68.8284 17.408L69.1484 17.664C68.615 18.9227 67.7937 19.8933 66.6844 20.576C65.575 21.2587 64.263 21.6 62.7484 21.6ZM78.5334 21.6C76.912 21.6 75.504 21.2693 74.3094 20.608C73.1147 19.9253 72.1867 18.9653 71.5254 17.728C70.8854 16.4907 70.5654 15.04 70.5654 13.376C70.5654 11.712 70.9067 10.272 71.5894 9.056C72.2934 7.84 73.2427 6.90133 74.4374 6.24C75.6534 5.57867 77.0187 5.248 78.5334 5.248C80.048 5.248 81.4027 5.57867 82.5974 6.24C83.792 6.88 84.7307 7.808 85.4134 9.024C86.1174 10.24 86.4694 11.6907 86.4694 13.376C86.4694 15.0613 86.1387 16.5227 85.4774 17.76C84.8374 18.976 83.92 19.9253 82.7254 20.608C81.552 21.2693 80.1547 21.6 78.5334 21.6ZM78.5334 20.96C79.28 20.96 79.8774 20.7467 80.3254 20.32C80.7734 19.8933 81.0934 19.136 81.2854 18.048C81.4987 16.96 81.6054 15.424 81.6054 13.44C81.6054 11.4347 81.4987 9.888 81.2854 8.8C81.0934 7.712 80.7734 6.95467 80.3254 6.528C79.8774 6.10133 79.28 5.888 78.5334 5.888C77.7867 5.888 77.1787 6.10133 76.7094 6.528C76.2614 6.95467 75.9307 7.712 75.7174 8.8C75.5254 9.888 75.4294 11.4347 75.4294 13.44C75.4294 15.424 75.5254 16.96 75.7174 18.048C75.9307 19.136 76.2614 19.8933 76.7094 20.32C77.1787 20.7467 77.7867 20.96 78.5334 20.96ZM93.4109 21.6C92.3655 21.6 91.4269 21.472 90.5949 21.216C89.7629 20.9813 88.9949 20.6827 88.2909 20.32L88.3229 16.512H88.6429L89.7309 18.432C90.2002 19.2853 90.7122 19.9253 91.2669 20.352C91.8429 20.7573 92.5682 20.96 93.4429 20.96C94.4669 20.96 95.2882 20.736 95.9069 20.288C96.5469 19.8187 96.8669 19.2 96.8669 18.432C96.8669 17.728 96.6429 17.152 96.1949 16.704C95.7469 16.256 94.9149 15.8507 93.6989 15.488L92.3549 15.072C91.0535 14.688 90.0295 14.0907 89.2829 13.28C88.5362 12.4693 88.1629 11.4773 88.1629 10.304C88.1629 8.896 88.7175 7.70133 89.8269 6.72C90.9362 5.73867 92.5255 5.248 94.5949 5.248C95.4269 5.248 96.2055 5.344 96.9309 5.536C97.6775 5.70667 98.3922 5.97333 99.0749 6.336L98.8829 9.792H98.5629L97.4429 7.808C97.0375 7.104 96.6322 6.61333 96.2269 6.336C95.8429 6.03733 95.2562 5.888 94.4669 5.888C93.7415 5.888 93.0589 6.09067 92.4189 6.496C91.7789 6.90133 91.4589 7.47733 91.4589 8.224C91.4589 8.94933 91.7255 9.52533 92.2589 9.952C92.8135 10.3787 93.6242 10.7733 94.6909 11.136L96.1309 11.552C97.6669 12.0213 98.7655 12.672 99.4269 13.504C100.088 14.3147 100.419 15.296 100.419 16.448C100.419 18.0053 99.8002 19.2533 98.5629 20.192C97.3469 21.1307 95.6295 21.6 93.4109 21.6Z" fill="#FBFBFB"/>
</svg>
