<svg width="114" height="25" viewBox="0 0 114 25" fill="none" xmlns="http://www.w3.org/2000/svg">
<path d="M0.72 24V23.64L1.44 23.388C2.256 23.124 2.664 22.44 2.664 21.336V2.904C2.664 2.424 2.604 2.04 2.484 1.752C2.388 1.464 2.112 1.224 1.656 1.032L0.72 0.599999V0.239999H7.668L14.328 17.664L20.592 0.239999H27.684V0.599999L27.108 0.815998C26.652 0.983999 26.34 1.224 26.172 1.536C26.004 1.824 25.92 2.208 25.92 2.688V21.516C25.92 21.996 25.98 22.368 26.1 22.632C26.22 22.896 26.508 23.124 26.964 23.316L27.684 23.64V24H18.72V23.64L19.476 23.316C19.932 23.124 20.22 22.896 20.34 22.632C20.46 22.368 20.52 21.996 20.52 21.516V13.416L20.592 3.12L13.068 24H11.268L3.42 3.372L3.528 12.336V21.408C3.528 21.936 3.6 22.368 3.744 22.704C3.912 23.016 4.224 23.244 4.68 23.388L5.472 23.64V24H0.72ZM33.7494 24.54C32.3574 24.54 31.1814 24.144 30.2214 23.352C29.2854 22.56 28.8174 21.42 28.8174 19.932C28.8174 18.804 29.3934 17.772 30.5454 16.836C31.6974 15.876 33.5094 15.156 35.9814 14.676C36.3654 14.604 36.7974 14.532 37.2774 14.46C37.7574 14.364 38.2614 14.268 38.7894 14.172V11.328C38.7894 9.696 38.5854 8.556 38.1774 7.908C37.7934 7.236 37.1814 6.9 36.3414 6.9C35.7654 6.9 35.3094 7.092 34.9734 7.476C34.6374 7.836 34.4214 8.472 34.3254 9.384L34.2534 9.78C34.2054 10.812 33.9534 11.568 33.4974 12.048C33.0414 12.528 32.4774 12.768 31.8054 12.768C31.1814 12.768 30.6654 12.576 30.2574 12.192C29.8494 11.808 29.6454 11.292 29.6454 10.644C29.6454 9.66 29.9814 8.832 30.6534 8.16C31.3494 7.488 32.2614 6.984 33.3894 6.648C34.5174 6.312 35.7414 6.144 37.0614 6.144C39.1974 6.144 40.8414 6.672 41.9934 7.728C43.1694 8.76 43.7574 10.452 43.7574 12.804V20.76C43.7574 21.84 44.2614 22.38 45.2694 22.38H46.0614L46.3854 22.668C45.9294 23.244 45.4254 23.688 44.8734 24C44.3454 24.312 43.5894 24.468 42.6054 24.468C41.5494 24.468 40.7094 24.228 40.0854 23.748C39.4854 23.244 39.0894 22.584 38.8974 21.768C38.1774 22.536 37.4334 23.196 36.6654 23.748C35.9214 24.276 34.9494 24.54 33.7494 24.54ZM35.9454 22.344C36.4254 22.344 36.8694 22.236 37.2774 22.02C37.7094 21.78 38.2134 21.42 38.7894 20.94V14.892C38.5494 14.94 38.3094 14.988 38.0694 15.036C37.8294 15.084 37.5534 15.132 37.2414 15.18C36.1374 15.468 35.2494 15.96 34.5774 16.656C33.9294 17.328 33.6054 18.24 33.6054 19.392C33.6054 20.376 33.8334 21.12 34.2894 21.624C34.7454 22.104 35.2974 22.344 35.9454 22.344ZM47.0559 24V23.64L47.5959 23.496C48.0759 23.352 48.3999 23.136 48.5679 22.848C48.7599 22.56 48.8559 22.188 48.8559 21.732V10.464C48.8559 9.936 48.7599 9.552 48.5679 9.312C48.3999 9.048 48.0759 8.868 47.5959 8.772L47.0559 8.628V8.268L53.2479 6.18L53.6079 6.54L53.9319 9.636V9.924C54.2679 9.252 54.6999 8.64 55.2279 8.088C55.7799 7.512 56.3799 7.044 57.0279 6.684C57.6999 6.324 58.3599 6.144 59.0079 6.144C59.9199 6.144 60.6159 6.396 61.0959 6.9C61.5759 7.404 61.8159 8.04 61.8159 8.808C61.8159 9.624 61.5759 10.26 61.0959 10.716C60.6399 11.148 60.0879 11.364 59.4399 11.364C58.4319 11.364 57.5439 10.86 56.7759 9.852L56.7039 9.78C56.4639 9.444 56.1879 9.264 55.8759 9.24C55.5639 9.192 55.2759 9.336 55.0119 9.672C54.7719 9.888 54.5679 10.152 54.3999 10.464C54.2559 10.752 54.1119 11.088 53.9679 11.472V21.516C53.9679 22.476 54.3879 23.076 55.2279 23.316L56.3799 23.64V24H47.0559ZM71.3121 24.54C69.6801 24.54 68.1921 24.192 66.8481 23.496C65.5281 22.776 64.4721 21.744 63.6801 20.4C62.9121 19.032 62.5281 17.364 62.5281 15.396C62.5281 13.452 62.9481 11.796 63.7881 10.428C64.6521 9.036 65.7921 7.98 67.2081 7.26C68.6481 6.516 70.2201 6.144 71.9241 6.144C73.3161 6.144 74.4921 6.372 75.4521 6.828C76.4121 7.284 77.1441 7.884 77.6481 8.628C78.1521 9.348 78.4041 10.104 78.4041 10.896C78.4041 11.568 78.2001 12.096 77.7921 12.48C77.3841 12.84 76.8561 13.02 76.2081 13.02C75.5121 13.02 74.9481 12.768 74.5161 12.264C74.0841 11.76 73.8321 11.1 73.7601 10.284C73.7361 9.756 73.7481 9.312 73.7961 8.952C73.8441 8.568 73.8441 8.184 73.7961 7.8C73.7001 7.392 73.5441 7.128 73.3281 7.008C73.1361 6.864 72.8601 6.792 72.5001 6.792C71.0361 6.792 69.8961 7.428 69.0801 8.7C68.2881 9.972 67.8921 12 67.8921 14.784C67.8921 17.208 68.3361 19.068 69.2241 20.364C70.1361 21.636 71.5281 22.272 73.4001 22.272C74.5281 22.272 75.4401 22.068 76.1361 21.66C76.8321 21.252 77.5041 20.64 78.1521 19.824L78.5121 20.112C77.9121 21.528 76.9881 22.62 75.7401 23.388C74.4921 24.156 73.0161 24.54 71.3121 24.54ZM89.0702 24.54C87.2462 24.54 85.6622 24.168 84.3182 23.424C82.9742 22.656 81.9302 21.576 81.1862 20.184C80.4662 18.792 80.1062 17.16 80.1062 15.288C80.1062 13.416 80.4902 11.796 81.2582 10.428C82.0502 9.06 83.1182 8.004 84.4622 7.26C85.8302 6.516 87.3662 6.144 89.0702 6.144C90.7742 6.144 92.2982 6.516 93.6422 7.26C94.9862 7.98 96.0422 9.024 96.8102 10.392C97.6022 11.76 97.9982 13.392 97.9982 15.288C97.9982 17.184 97.6262 18.828 96.8822 20.22C96.1622 21.588 95.1302 22.656 93.7862 23.424C92.4662 24.168 90.8942 24.54 89.0702 24.54ZM89.0702 23.82C89.9102 23.82 90.5822 23.58 91.0862 23.1C91.5902 22.62 91.9502 21.768 92.1662 20.544C92.4062 19.32 92.5262 17.592 92.5262 15.36C92.5262 13.104 92.4062 11.364 92.1662 10.14C91.9502 8.916 91.5902 8.064 91.0862 7.584C90.5822 7.104 89.9102 6.864 89.0702 6.864C88.2302 6.864 87.5462 7.104 87.0182 7.584C86.5142 8.064 86.1422 8.916 85.9022 10.14C85.6862 11.364 85.5782 13.104 85.5782 15.36C85.5782 17.592 85.6862 19.32 85.9022 20.544C86.1422 21.768 86.5142 22.62 87.0182 23.1C87.5462 23.58 88.2302 23.82 89.0702 23.82ZM105.807 24.54C104.631 24.54 103.575 24.396 102.639 24.108C101.703 23.844 100.839 23.508 100.047 23.1L100.083 18.816H100.443L101.667 20.976C102.195 21.936 102.771 22.656 103.395 23.136C104.043 23.592 104.859 23.82 105.843 23.82C106.995 23.82 107.919 23.568 108.615 23.064C109.335 22.536 109.695 21.84 109.695 20.976C109.695 20.184 109.443 19.536 108.939 19.032C108.435 18.528 107.499 18.072 106.131 17.664L104.619 17.196C103.155 16.764 102.003 16.092 101.163 15.18C100.323 14.268 99.9034 13.152 99.9034 11.832C99.9034 10.248 100.527 8.904 101.775 7.8C103.023 6.696 104.811 6.144 107.139 6.144C108.075 6.144 108.951 6.252 109.767 6.468C110.607 6.66 111.411 6.96 112.179 7.368L111.963 11.256H111.603L110.343 9.024C109.887 8.232 109.431 7.68 108.975 7.368C108.543 7.032 107.883 6.864 106.995 6.864C106.179 6.864 105.411 7.092 104.691 7.548C103.971 8.004 103.611 8.652 103.611 9.492C103.611 10.308 103.911 10.956 104.511 11.436C105.135 11.916 106.047 12.36 107.247 12.768L108.867 13.236C110.595 13.764 111.831 14.496 112.575 15.432C113.319 16.344 113.691 17.448 113.691 18.744C113.691 20.496 112.995 21.9 111.603 22.956C110.235 24.012 108.303 24.54 105.807 24.54Z" fill="black"/>
</svg>
