<svg width="400" height="404" viewBox="0 0 400 404" fill="none" xmlns="http://www.w3.org/2000/svg">
<circle cx="200" cy="202" r="200" fill="white"/>
<path d="M282.7 78.8L285.1 98.9L209.8 266.6C209.8 266.6 209 268.3 207.4 271.7C206 275.1 204.5 279.2 202.9 284C201.3 288.6 200.2 293 199.6 297.2H196.6L192.4 278.3L282.7 78.8ZM98.2004 271.1V293H64.9004V290C65.1004 290 65.9004 290 67.3004 290C68.9004 290 69.7004 290 69.7004 290C75.1004 290 79.9004 288.4 84.1004 285.2C88.3004 281.8 90.8004 277.1 91.6004 271.1H98.2004ZM106.9 275.9C106.9 276.1 106.9 276.3 106.9 276.5C106.9 276.7 106.9 277 106.9 277.4C106.9 280.6 108 283.6 110.2 286.4C112.6 289 115.4 290.3 118.6 290.3H123.1V293H104.8V275.9H106.9ZM114.1 78.8H117.1L123.1 96.5L105.4 293H89.2004L114.1 78.8ZM117.1 78.8L203.5 265.7L196.6 297.2L111.4 112.4L117.1 78.8ZM285.4 78.8L311.2 293H287.8L271.3 111.2L282.7 78.8H285.4ZM302.2 271.1H308.5C309.5 277.1 312.1 281.8 316.3 285.2C320.5 288.4 325.2 290 330.4 290C330.4 290 331.2 290 332.8 290C334.4 290 335.2 290 335.2 290V293H302.2V271.1ZM286.3 275.9H288.4V293H270.1V290.3H274.6C278 290.3 280.8 289 283 286.4C285.2 283.6 286.3 280.6 286.3 277.4C286.3 277 286.3 276.7 286.3 276.5C286.3 276.3 286.3 276.1 286.3 275.9Z" fill="black"/>
<path d="M200.435 106.8L293.435 319.2H267.935L194.435 135.3L200.435 106.8ZM200.435 106.8L203.135 127.8L123.335 320.1H105.335L186.635 137.7C186.635 137.7 187.235 136.4 188.435 133.8C189.435 131.4 190.735 128.4 192.335 124.8C193.735 121.2 195.035 117.7 196.235 114.3C197.235 110.9 197.735 108.4 197.735 106.8H200.435ZM131.735 299.4C129.535 305.4 129.935 310 132.935 313.2C135.935 316.4 139.335 318 143.135 318H145.835V321H85.5351V318C85.5351 318 86.0351 318 87.0351 318C87.8351 318 88.2351 318 88.2351 318C92.6351 318 97.3351 316.5 102.335 313.5C107.335 310.7 111.435 305.9 114.635 299.1L131.735 299.4ZM259.835 299.4L284.735 299.1C287.735 305.9 291.735 310.7 296.735 313.5C301.735 316.5 306.535 318 311.135 318C311.135 318 311.535 318 312.335 318C313.135 318 313.535 318 313.535 318V321H246.035V318H248.735C252.535 318 255.935 316.4 258.935 313.2C261.735 310 262.035 305.4 259.835 299.4Z" fill="black"/>
<rect width="211" height="29" transform="translate(94 187)" fill="white"/>
<path d="M96.6436 192.227H97.3882L104.7 209.036L112.037 192.227H112.769L104.969 210H104.444L96.6436 192.227ZM96.4482 192.227H97.1074V201.418V210H96.4482V192.227ZM112.342 192.227H113.001V210H112.342V201.418V192.227ZM123.206 192.788L116.785 210H116.065L122.718 192.227H123.353L123.206 192.788ZM129.456 210L123.035 192.788L122.901 192.227H123.523L130.176 210H129.456ZM127.576 204.031V204.69H118.677V204.031H127.576ZM132.984 192.227H138.648C139.779 192.227 140.784 192.426 141.663 192.825C142.542 193.215 143.23 193.793 143.726 194.558C144.231 195.315 144.483 196.247 144.483 197.354C144.483 198.216 144.296 198.997 143.921 199.697C143.547 200.389 143.047 200.959 142.42 201.406C141.793 201.854 141.093 202.135 140.32 202.249L139.942 202.395H133.143L133.118 201.736H139.246C140.263 201.736 141.11 201.524 141.785 201.101C142.461 200.678 142.969 200.133 143.311 199.465C143.653 198.79 143.824 198.086 143.824 197.354C143.824 196.418 143.612 195.62 143.189 194.961C142.766 194.294 142.164 193.781 141.382 193.423C140.609 193.065 139.698 192.886 138.648 192.886H133.643V210H132.984V192.227ZM144.532 210L139.661 202.163L140.43 202.139L145.228 209.829V210H144.532ZM160.828 204.556H161.487C161.365 205.833 161.028 206.895 160.474 207.742C159.929 208.58 159.201 209.207 158.289 209.622C157.386 210.037 156.34 210.244 155.152 210.244C154.175 210.244 153.292 210.057 152.503 209.683C151.714 209.308 151.034 208.775 150.464 208.083C149.903 207.392 149.472 206.57 149.17 205.618C148.869 204.657 148.719 203.599 148.719 202.444V199.783C148.719 198.619 148.869 197.561 149.17 196.609C149.472 195.657 149.903 194.835 150.464 194.143C151.034 193.451 151.714 192.918 152.503 192.544C153.292 192.17 154.175 191.982 155.152 191.982C156.34 191.982 157.386 192.19 158.289 192.605C159.201 193.02 159.929 193.647 160.474 194.485C161.028 195.323 161.365 196.377 161.487 197.646H160.828C160.706 196.556 160.409 195.64 159.937 194.9C159.473 194.159 158.838 193.598 158.033 193.215C157.235 192.833 156.275 192.642 155.152 192.642C154.289 192.642 153.504 192.812 152.796 193.154C152.088 193.488 151.478 193.968 150.965 194.595C150.46 195.221 150.07 195.97 149.793 196.841C149.516 197.712 149.378 198.684 149.378 199.758V202.444C149.378 203.518 149.516 204.495 149.793 205.374C150.07 206.252 150.46 207.005 150.965 207.632C151.478 208.258 152.088 208.743 152.796 209.084C153.504 209.418 154.289 209.585 155.152 209.585C156.25 209.585 157.203 209.41 158.008 209.06C158.814 208.702 159.453 208.153 159.925 207.412C160.405 206.663 160.706 205.711 160.828 204.556ZM178.199 199.783V202.444C178.199 203.599 178.04 204.657 177.723 205.618C177.413 206.57 176.966 207.392 176.38 208.083C175.802 208.775 175.102 209.308 174.28 209.683C173.458 210.057 172.535 210.244 171.509 210.244C170.492 210.244 169.568 210.057 168.738 209.683C167.916 209.308 167.208 208.775 166.614 208.083C166.028 207.392 165.577 206.57 165.259 205.618C164.95 204.657 164.795 203.599 164.795 202.444V199.783C164.795 198.619 164.95 197.561 165.259 196.609C165.577 195.657 166.028 194.835 166.614 194.143C167.2 193.451 167.904 192.918 168.726 192.544C169.548 192.17 170.468 191.982 171.485 191.982C172.51 191.982 173.434 192.17 174.256 192.544C175.078 192.918 175.782 193.451 176.368 194.143C176.962 194.835 177.413 195.657 177.723 196.609C178.04 197.561 178.199 198.619 178.199 199.783ZM177.54 202.444V199.758C177.54 198.717 177.405 197.764 177.137 196.902C176.868 196.031 176.473 195.278 175.953 194.644C175.432 194.009 174.797 193.516 174.048 193.167C173.3 192.817 172.445 192.642 171.485 192.642C170.533 192.642 169.682 192.817 168.934 193.167C168.193 193.516 167.562 194.009 167.042 194.644C166.529 195.278 166.138 196.031 165.87 196.902C165.601 197.764 165.467 198.717 165.467 199.758V202.444C165.467 203.494 165.601 204.454 165.87 205.325C166.146 206.195 166.541 206.948 167.054 207.583C167.575 208.218 168.209 208.71 168.958 209.06C169.707 209.41 170.557 209.585 171.509 209.585C172.47 209.585 173.32 209.41 174.061 209.06C174.809 208.71 175.44 208.218 175.953 207.583C176.473 206.948 176.868 206.195 177.137 205.325C177.405 204.454 177.54 203.494 177.54 202.444ZM192.908 205.74C192.908 205.178 192.811 204.678 192.615 204.238C192.42 203.799 192.107 203.404 191.675 203.054C191.244 202.704 190.678 202.383 189.979 202.09C189.287 201.797 188.436 201.512 187.427 201.235C186.524 200.991 185.71 200.731 184.986 200.454C184.262 200.169 183.643 199.844 183.13 199.478C182.626 199.111 182.239 198.676 181.971 198.171C181.702 197.659 181.568 197.044 181.568 196.328C181.568 195.653 181.714 195.046 182.007 194.509C182.308 193.972 182.723 193.516 183.252 193.142C183.79 192.768 184.416 192.483 185.132 192.288C185.848 192.084 186.626 191.982 187.464 191.982C188.619 191.982 189.641 192.202 190.528 192.642C191.415 193.081 192.111 193.695 192.615 194.485C193.128 195.266 193.384 196.182 193.384 197.231H192.725C192.725 196.353 192.505 195.567 192.066 194.875C191.626 194.184 191.012 193.639 190.223 193.24C189.441 192.841 188.522 192.642 187.464 192.642C186.349 192.642 185.401 192.812 184.62 193.154C183.838 193.496 183.244 193.948 182.837 194.509C182.431 195.063 182.227 195.661 182.227 196.304C182.227 196.776 182.308 197.215 182.471 197.622C182.642 198.029 182.927 198.407 183.326 198.757C183.724 199.099 184.274 199.425 184.974 199.734C185.674 200.035 186.552 200.324 187.61 200.601C188.489 200.828 189.291 201.085 190.015 201.37C190.748 201.654 191.378 201.992 191.907 202.383C192.444 202.773 192.855 203.241 193.14 203.787C193.433 204.324 193.58 204.967 193.58 205.715C193.58 206.44 193.421 207.083 193.104 207.644C192.794 208.206 192.363 208.682 191.81 209.072C191.256 209.455 190.613 209.748 189.881 209.951C189.157 210.146 188.379 210.244 187.549 210.244C186.792 210.244 186.028 210.155 185.254 209.976C184.481 209.797 183.773 209.508 183.13 209.109C182.487 208.702 181.971 208.161 181.58 207.485C181.189 206.81 180.994 205.976 180.994 204.983H181.653C181.653 205.87 181.836 206.611 182.203 207.205C182.569 207.799 183.045 208.271 183.631 208.621C184.225 208.962 184.864 209.211 185.547 209.365C186.239 209.512 186.906 209.585 187.549 209.585C188.591 209.585 189.515 209.422 190.32 209.097C191.126 208.771 191.757 208.319 192.212 207.742C192.676 207.164 192.908 206.497 192.908 205.74ZM208.143 192.788L201.722 210H201.001L207.654 192.227H208.289L208.143 192.788ZM214.393 210L207.972 192.788L207.837 192.227H208.46L215.113 210H214.393ZM212.513 204.031V204.69H203.614V204.031H212.513ZM230.787 192.227V210H230.127L218.653 193.35V210H217.981V192.227H218.653L230.127 208.84V192.227H230.787ZM240.674 192.227V210H240.015V192.227H240.674ZM247.144 192.227V192.886H233.545V192.227H247.144ZM262.5 199.783V202.444C262.5 203.599 262.342 204.657 262.024 205.618C261.715 206.57 261.268 207.392 260.682 208.083C260.104 208.775 259.404 209.308 258.582 209.683C257.76 210.057 256.836 210.244 255.811 210.244C254.794 210.244 253.87 210.057 253.04 209.683C252.218 209.308 251.51 208.775 250.916 208.083C250.33 207.392 249.878 206.57 249.561 205.618C249.252 204.657 249.097 203.599 249.097 202.444V199.783C249.097 198.619 249.252 197.561 249.561 196.609C249.878 195.657 250.33 194.835 250.916 194.143C251.502 193.451 252.206 192.918 253.028 192.544C253.85 192.17 254.769 191.982 255.787 191.982C256.812 191.982 257.736 192.17 258.558 192.544C259.38 192.918 260.083 193.451 260.669 194.143C261.264 194.835 261.715 195.657 262.024 196.609C262.342 197.561 262.5 198.619 262.5 199.783ZM261.841 202.444V199.758C261.841 198.717 261.707 197.764 261.438 196.902C261.17 196.031 260.775 195.278 260.254 194.644C259.734 194.009 259.099 193.516 258.35 193.167C257.601 192.817 256.747 192.642 255.787 192.642C254.834 192.642 253.984 192.817 253.235 193.167C252.495 193.516 251.864 194.009 251.343 194.644C250.831 195.278 250.44 196.031 250.171 196.902C249.903 197.764 249.769 198.717 249.769 199.758V202.444C249.769 203.494 249.903 204.454 250.171 205.325C250.448 206.195 250.843 206.948 251.355 207.583C251.876 208.218 252.511 208.71 253.26 209.06C254.008 209.41 254.859 209.585 255.811 209.585C256.771 209.585 257.622 209.41 258.362 209.06C259.111 208.71 259.742 208.218 260.254 207.583C260.775 206.948 261.17 206.195 261.438 205.325C261.707 204.454 261.841 203.494 261.841 202.444ZM279.371 192.227V210H278.711L267.237 193.35V210H266.565V192.227H267.237L278.711 208.84V192.227H279.371ZM285.413 192.227V210H284.754V192.227H285.413ZM303.37 199.783V202.444C303.37 203.599 303.211 204.657 302.894 205.618C302.584 206.57 302.137 207.392 301.551 208.083C300.973 208.775 300.273 209.308 299.451 209.683C298.629 210.057 297.706 210.244 296.68 210.244C295.663 210.244 294.739 210.057 293.909 209.683C293.087 209.308 292.379 208.775 291.785 208.083C291.199 207.392 290.748 206.57 290.43 205.618C290.121 204.657 289.966 203.599 289.966 202.444V199.783C289.966 198.619 290.121 197.561 290.43 196.609C290.748 195.657 291.199 194.835 291.785 194.143C292.371 193.451 293.075 192.918 293.897 192.544C294.719 192.17 295.639 191.982 296.656 191.982C297.681 191.982 298.605 192.17 299.427 192.544C300.249 192.918 300.953 193.451 301.539 194.143C302.133 194.835 302.584 195.657 302.894 196.609C303.211 197.561 303.37 198.619 303.37 199.783ZM302.71 202.444V199.758C302.71 198.717 302.576 197.764 302.308 196.902C302.039 196.031 301.644 195.278 301.124 194.644C300.603 194.009 299.968 193.516 299.219 193.167C298.471 192.817 297.616 192.642 296.656 192.642C295.704 192.642 294.853 192.817 294.104 193.167C293.364 193.516 292.733 194.009 292.212 194.644C291.7 195.278 291.309 196.031 291.041 196.902C290.772 197.764 290.638 198.717 290.638 199.758V202.444C290.638 203.494 290.772 204.454 291.041 205.325C291.317 206.195 291.712 206.948 292.225 207.583C292.745 208.218 293.38 208.71 294.129 209.06C294.878 209.41 295.728 209.585 296.68 209.585C297.64 209.585 298.491 209.41 299.231 209.06C299.98 208.71 300.611 208.218 301.124 207.583C301.644 206.948 302.039 206.195 302.308 205.325C302.576 204.454 302.71 203.494 302.71 202.444Z" fill="black"/>
</svg>
